# AST/ASF file generated using VICON BodyLanguage
# -----------------------------------------------
:version 1.10
:name VICON
:units
  mass 1.0
  length 0.45
  angle deg
:documentation
   .ast/.asf automatically generated from VICON data using
   VICON BodyBuilder and BodyLanguage model FoxedUp or BRILLIANT.MOD
:root
   order TX TY TZ RX RY RZ
   axis XYZ
   position 0 0 0  
   orientation 0 0 0 
:bonedata
  begin
     id 1 
     name lhipjoint
     direction 0.558404 -0.748506 0.357664 
     length 2.4234 
     axis 0 0 0  XYZ
  end
  begin
     id 2 
     name lfemur
     direction 0.34202 -0.939693 0  
     length 7.14567  
     axis 0 0 20  XYZ
    dof rx ry rz
    limits (-160.0 20.0)
           (-70.0 70.0)
           (-60.0 70.0)
  end
  begin
     id 3 
     name ltibia
     direction 0.34202 -0.939693 0   
     length 8.13956   
     axis 0 0 20   XYZ
    dof rx
    limits (-10.0 170.0)
  end
  begin
     id 4 
     name lfoot
     direction 0.0791314 -0.217412 0.972867   
     length 2.00134   
     axis -90 7.62852e-016 20   XYZ
    dof rx rz
    limits (-45.0 90.0)
           (-70.0 20.0)
  end
  begin
     id 5 
     name ltoes
     direction 1.53547e-011 -4.21922e-011 1   
     length 1.00735   
     axis -90 7.62852e-016 20   XYZ
    dof rx
    limits (-90.0 20.0)
  end
  begin
     id 6 
     name rhipjoint
     direction -0.496392 -0.78327 0.374276   
     length 2.31584  
     axis 0 0 0  XYZ 
  end
  begin
     id 7 
     name rfemur
     direction -0.34202 -0.939693 0   
     length 7.47417   
     axis 0 0 -20   XYZ
    dof rx ry rz
    limits (-160.0 20.0)
           (-70.0 70.0)
           (-70.0 60.0)
  end
  begin
     id 8 
     name rtibia
     direction -0.34202 -0.939693 0   
     length 7.69071   
     axis 0 0 -20   XYZ
    dof rx
    limits (-10.0 170.0)
 end
 begin
     id 9 
     name rfoot
     direction -0.103069 -0.28318 0.953512   
     length 2.16135  
     axis -90 -7.62852e-016 -20   XYZ
    dof rx rz
    limits (-45.0 90.0)
           (-20.0 70.0)
  end
  begin
     id 10 
     name rtoes
     direction -1.53581e-011 -4.21904e-011 1   
     length 1.07867   
     axis -90 -7.62852e-016 -20   XYZ
    dof rx
    limits (-90.0 20.0)
  end
  begin
     id 11 
     name lowerback
     direction -0.0258961 0.994776 -0.0987407   
     length 2.19412   
     axis 0 0 0   XYZ
    dof rx ry rz
    limits (-20.0 45.0)
           (-30.0 30.0)
           (-30.0 30.0)
  end
  begin
     id 12 
     name upperback
     direction 0.0402454 0.999185 0.00320666   
     length 2.18445   
     axis 0 0 0   XYZ
    dof rx ry rz
    limits (-20.0 45.0)
           (-30.0 30.0)
           (-30.0 30.0)
  end
  begin
     id 13 
     name thorax
     direction 0.0519376 0.997415 0.0496558   
     length 2.21487   
     axis 0 0 0   XYZ
    dof rx ry rz
    limits (-20.0 45.0)
           (-30.0 30.0)
           (-30.0 30.0)
  end
  begin
     id 14 
     name lowerneck
     direction -0.0921276 0.983211 0.157506   
     length 1.61201   
     axis 0 0 0   XYZ
    dof rx ry rz
    limits (-20.0 45.0)
           (-30.0 30.0)
           (-30.0 30.0)
  end
  begin
     id 15 
     name upperneck
     direction 0.0820814 0.98162 -0.172292   
     length 1.65275   
     axis 0 0 0   XYZ
    dof rx ry rz
    limits (-20.0 45.0)
           (-30.0 30.0)
           (-30.0 30.0)
  end
  begin
     id 16
     name head
     direction 0.0336554 0.996413 -0.0776455  
     length 1.66415  
     axis 0 0 0   XYZ
    dof rx ry rz
    limits (-20.0 45.0)
           (-30.0 30.0)
           (-30.0 30.0)
  end
  begin
     id 17 
     name lclavicle
     direction 0.94696 0.284418 -0.149576  
     length 3.41447  
     axis 0 0 0   XYZ
    dof ry rz
    limits (-20.0 10.0)
           (0.0 20.0)
  end
  begin
     id 18 
     name lhumerus
     direction 1 -0.000130264 -9.81312e-005   
     length 5.19964   
     axis 180 -30 -90   XYZ
    dof rx ry rz
    limits (-60.0 90.0)
           (-90.0 90.0)
           (-90.0 90.0)
  end
  begin
     id 19
     name lradius
     direction 1 -4.48961e-011 1.43854e-026   
     length 3.32189   
     axis 180 -30 -90   XYZ
    dof rx
    limits (-10.0 170.0)
  end
  begin
     id 20
     name lwrist
     direction 1 -4.48958e-011 3.1502e-026   
     length 1.66095   
     axis -1.97692e-014 90 90   XYZ
    dof ry
    limits (-180.0 0.0)
 end
  begin
     id 21 
     name lhand
     direction 1 -4.48927e-011 6.3004e-026   
     length 0.645616   
     axis -4.02019e-014 90 90   XYZ
    dof rx rz
    limits (-90.0 90.0)
           (-45.0 45.0)
  end
  begin
     id 22 
     name lfingers
     direction 1 -4.4904e-011 1.26008e-025   
     length 0.520512   
     axis -8.04039e-014 90 90   XYZ
    dof rx
    limits (0.0 90.0)
  end
  begin
     id 23
     name lthumb
     direction 0.707107 -6.34947e-011 0.707107   
     length 0.747354   
     axis -90 45 2.85299e-015   XYZ
    dof rx rz
    limits (-45.0 45.0)
           (-45.0 45.0)
  end
  begin
     id 24 
     name rclavicle
     direction -0.909391 0.383475 -0.161107   
     length 3.25176  
     axis 0 0 0   XYZ 
    dof ry rz
    limits (-10.0 20.0)
           (-20.0 0.0)
  end
  begin
     id 25 
     name rhumerus
     direction -1 -4.48965e-011 -1.81384e-027  
     length 5.6595   
     axis 180 30 90   XYZ
    dof rx ry rz
    limits (-90.0 60.0)
           (-90.0 90.0)
           (-90.0 90.0)
  end
  begin
     id 26 
     name rradius
     direction -1 -4.48996e-011 -8.09397e-027   
     length 3.37604   
     axis 180 30 90   XYZ
    dof rx
    limits (-10.0 170.0)
  end
  begin
     id 27 
     name rwrist
     direction -1 -4.48927e-011 -1.56669e-026   
     length 1.68802   
     axis 1.21142e-014 -90 -90   XYZ
    dof ry
    limits (-180.0 0.0)
  end
  begin
     id 28
     name rhand
     direction -1 -4.48912e-011 -3.13339e-026   
     length 0.824702   
     axis 1.99937e-014 -90 -90   XYZ
    dof rx rz
    limits (-90.0 90.0)
           (-45.0 45.0)
  end
  begin
     id 29
     name rfingers
     direction -1 -4.49011e-011 -6.26677e-026   
     length 0.664896   
     axis 3.99874e-014 -90 -90   XYZ
    dof rx
    limits (0.0 90.0)
  end
  begin
     id 30
     name rthumb
     direction -0.707107 -6.34931e-011 0.707107   
     length 0.954662   
     axis -90 -45 -2.85299e-015   XYZ
    dof rx rz
    limits (-45.0 45.0)
           (-45.0 45.0)
  end
:hierarchy
  begin
    root lhipjoint rhipjoint lowerback
    lhipjoint lfemur
    lfemur ltibia
    ltibia lfoot
    lfoot ltoes
    rhipjoint rfemur
    rfemur rtibia
    rtibia rfoot
    rfoot rtoes
    lowerback upperback
    upperback thorax
    thorax lowerneck lclavicle rclavicle
    lowerneck upperneck
    upperneck head
    lclavicle lhumerus
    lhumerus lradius
    lradius lwrist
    lwrist lhand lthumb
    lhand lfingers
    rclavicle rhumerus
    rhumerus rradius
    rradius rwrist
    rwrist rhand rthumb
    rhand rfingers
  end

#!OML:ASF F:\VICON\USERDATA\INSTALL\rory3\rory3.ASF
:FULLY-SPECIFIED
:DEGREES
317
root 12.5918 17.1507 10.7386 2.29121 -0.382604 1.45905
lowerback 7.68638 -2.04401 -7.62863
upperback 0.835582 -3.21627 4.57486
thorax -2.7505 -1.51399 9.48732
lowerneck -5.23993 -8.23831 -14.7435
upperneck 30.0889 -13.5151 12.881
head 12.7941 -6.42764 5.70805
rclavicle 1.47101e-014 -7.15625e-015
rhumerus -49.7327 -37.3925 -50.8905
rradius 24.9851
rwrist -14.1234
rhand -18.2088 14.3601
rfingers 7.12502
rthumb 8.06885 -15.4659
lclavicle 1.47101e-014 -7.15625e-015
lhumerus -27.5911 3.82607 81.5654
lradius 38.2879
lwrist -1.2243
lhand -3.9215 31.9329
lfingers 7.12502
lthumb 21.8293 60.7217
rfemur -24.2444 4.52076 5.67668
rtibia 41.6531
rfoot -15.0834 -4.27293
rtoes 12.3968
lfemur -4.88182 -4.57002 -19.8542
ltibia 33.6774
lfoot -26.3699 1.63101
ltoes -5.48958
318
root 12.5575 17.1453 10.7687 2.34431 -0.629348 1.33613
lowerback 7.77044 -2.01959 -7.56873
upperback 0.819729 -3.18214 4.62925
thorax -2.82185 -1.49291 9.51532
lowerneck -6.71939 -8.12511 -14.4664
upperneck 30.6072 -13.1931 12.6289
head 13.2256 -6.21475 5.5779
rclavicle -2.74323e-014 -2.54444e-014
rhumerus -49.1851 -37.2766 -51.1981
rradius 25.1607
rwrist -14.5739
rhand -18.4257 14.3502
rfingers 7.12502
rthumb 7.85949 -15.4837
lclavicle -2.74323e-014 -2.54444e-014
lhumerus -26.9994 3.64288 81.31
lradius 38.1547
lwrist -1.5236
lhand -3.95141 31.7093
lfingers 7.12502
lthumb 21.8006 60.5014
rfemur -24.3918 4.51241 5.9393
rtibia 41.8577
rfoot -15.1462 -4.02764
rtoes 11.962
lfemur -4.78434 -4.6096 -19.6483
ltibia 33.6437
lfoot -26.4175 1.9378
ltoes -5.74229
319
root 12.5202 17.1434 10.8064 2.32118 -1.02173 1.09085
lowerback 7.7896 -2.01954 -7.48329
upperback 0.924737 -3.17334 4.70255
thorax -2.72412 -1.49894 9.54194
lowerneck -5.95614 -7.64292 -14.4558
upperneck 29.0889 -12.5687 13.2604
head 12.3562 -5.90867 5.89753
rclavicle -6.95746e-015 3.89618e-014
rhumerus -48.3721 -37.0379 -51.9093
rradius 25.4404
rwrist -14.9668
rhand -18.4997 14.4913
rfingers 7.12502
rthumb 7.78808 -15.3452
lclavicle -6.95746e-015 3.89618e-014
lhumerus -26.3322 3.74744 80.8843
lradius 38.0376
lwrist -1.68607
lhand -3.78845 31.5676
lfingers 7.12502
lthumb 21.9571 60.3415
rfemur -24.4779 4.85684 6.34853
rtibia 42.0165
rfoot -15.1976 -3.9783
rtoes 11.3403
lfemur -4.54401 -4.68663 -19.3474
ltibia 33.6146
lfoot -26.5258 2.31673
ltoes -5.83675
320
root 12.4818 17.1456 10.8457 2.33608 -1.39097 0.670461
lowerback 7.64521 -2.02267 -7.22953
upperback 1.09081 -3.14366 4.8341
thorax -2.48112 -1.50608 9.51932
lowerneck -6.07172 -7.28833 -14.3833
upperneck 28.2925 -12.0416 13.6135
head 11.979 -5.62686 6.07089
rclavicle -8.22969e-014 2.94201e-014
rhumerus -47.5029 -36.8988 -52.6197
rradius 25.7609
rwrist -15.6134
rhand -18.5569 14.4056
rfingers 7.12502
rthumb 7.73285 -15.433
lclavicle -8.22969e-014 2.94201e-014
lhumerus -25.8079 3.84751 80.5095
lradius 38.2622
lwrist -1.45596
lhand -4.10272 30.995
lfingers 7.12502
lthumb 21.6553 59.804
rfemur -24.56 5.2928 6.96122
rtibia 42.1239
rfoot -15.3737 -4.03138
rtoes 11.2645
lfemur -4.35603 -4.84498 -18.8524
ltibia 33.5985
lfoot -26.6195 2.69586
ltoes -5.81241
321
root 12.447 17.1467 10.8829 2.3139 -1.5135 0.23619
lowerback 7.75717 -2.06407 -6.84307
upperback 1.0467 -3.16797 4.99682
thorax -2.59695 -1.51384 9.4815
lowerneck -6.34993 -6.96918 -14.4742
upperneck 28.0331 -11.5388 13.7922
head 11.8584 -5.3816 6.21576
rclavicle 5.96354e-015 -3.97569e-015
rhumerus -46.9066 -36.1039 -53.3101
rradius 26.2816
rwrist -16.5436
rhand -18.5646 14.1152
rfingers 7.12502
rthumb 7.72536 -15.7236
lclavicle 5.96354e-015 -3.97569e-015
lhumerus -25.605 3.91605 80.2915
lradius 38.366
lwrist -1.13182
lhand -4.8554 30.1505
lfingers 7.12502
lthumb 20.9323 59.041
rfemur -24.4741 5.29467 7.59911
rtibia 42.2321
rfoot -15.6348 -3.85168
rtoes 11.466
lfemur -4.12773 -5.04048 -18.3168
ltibia 33.5789
lfoot -26.7398 2.9128
ltoes -5.76146
322
root 12.4086 17.1418 10.9244 2.20104 -1.64896 -0.0668567
lowerback 8.01261 -2.09218 -6.60743
upperback 0.945647 -3.19393 5.11319
thorax -2.84701 -1.51239 9.49349
lowerneck -6.55202 -6.60194 -14.4747
upperneck 27.8026 -10.9678 13.878
head 11.7076 -5.10781 6.31975
rclavicle -5.56597e-015 6.36111e-015
rhumerus -46.6406 -35.5446 -53.5652
rradius 26.5672
rwrist -16.4525
rhand -18.5179 14.2766
rfingers 7.12502
rthumb 7.77048 -15.5606
lclavicle -5.56597e-015 6.36111e-015
lhumerus -25.378 3.94872 79.9992
lradius 38.3861
lwrist -1.18323
lhand -4.65475 30.5759
lfingers 7.12502
lthumb 21.1251 59.445
rfemur -24.2558 5.21129 8.11664
rtibia 42.3781
rfoot -15.9481 -3.5982
rtoes 11.0903
lfemur -3.76903 -5.23163 -17.9341
ltibia 33.5577
lfoot -26.8323 3.11955
ltoes -5.62202
323
root 12.3742 17.1309 10.9729 2.09545 -1.81027 0.163961
lowerback 8.02053 -2.08746 -6.8373
upperback 1.02429 -3.21134 5.02709
thorax -2.75705 -1.52662 9.5326
lowerneck -7.32327 -6.30266 -13.8251
upperneck 27.7369 -10.3985 13.4105
head 11.6653 -4.79653 6.07936
rclavicle 4.7112e-014 -5.40694e-014
rhumerus -46.2023 -35.9438 -53.5644
rradius 26.5046
rwrist -15.894
rhand -18.3369 14.6292
rfingers 7.12502
rthumb 7.94515 -15.2015
lclavicle 4.7112e-014 -5.40694e-014
lhumerus -24.771 3.8726 79.6327
lradius 38.4853
lwrist -1.46439
lhand -3.83149 31.6145
lfingers 7.12502
lthumb 21.9158 60.3932
rfemur -24.0627 4.9014 8.00101
rtibia 42.5647
rfoot -16.2358 -3.17118
rtoes 10.487
lfemur -3.39538 -5.44694 -18.2053
ltibia 33.5287
lfoot -26.8037 3.49878
ltoes -5.96582
324
root 12.3389 17.1224 11.0161 2.09994 -2.03954 0.42109
lowerback 8.05361 -2.05519 -7.12184
upperback 1.00381 -3.19777 4.94362
thorax -2.78897 -1.51465 9.61017
lowerneck -8.49196 -6.00702 -12.7999
upperneck 28.0974 -9.78665 12.4753
head 11.8262 -4.46195 5.60638
rclavicle 3.49861e-014 -1.98785e-014
rhumerus -45.6354 -35.732 -54.0873
rradius 26.793
rwrist -16.3146
rhand -18.1346 14.7042
rfingers 7.12502
rthumb 8.14041 -15.119
lclavicle 3.49861e-014 -1.98785e-014
lhumerus -24.2751 3.85632 79.2961
lradius 38.4353
lwrist -1.51321
lhand -3.79175 31.706
lfingers 7.12502
lthumb 21.9539 60.4803
rfemur -24.1046 4.67759 7.83876
rtibia 42.7534
rfoot -16.3978 -2.76952
rtoes 10.3689
lfemur -3.14119 -5.59198 -18.4977
ltibia 33.5066
lfoot -26.7896 4.0171
ltoes -6.84033
325
root 12.2977 17.1206 11.0513 2.22388 -2.37325 0.0915564
lowerback 8.17952 -2.05771 -6.95077
upperback 0.880037 -3.18875 5.06814
thorax -2.99414 -1.49618 9.65945
lowerneck -9.42465 -5.64753 -12.3141
upperneck 28.3842 -9.16744 12.0751
head 11.9829 -4.14028 5.44798
rclavicle -1.90833e-014 -1.82882e-014
rhumerus -44.9437 -34.6628 -55.1093
rradius 27.3519
rwrist -17.1037
rhand -18.2005 14.4479
rfingers 7.12502
rthumb 8.07679 -15.3778
lclavicle -1.90833e-014 -1.82882e-014
lhumerus -24.0393 4.24484 78.9264
lradius 38.3152
lwrist -1.57787
lhand -4.22021 31.4036
lfingers 7.12502
lthumb 21.5425 60.2255
rfemur -24.326 4.85472 8.35315
rtibia 42.8876
rfoot -16.4616 -2.6292
rtoes 10.5826
lfemur -3.03336 -5.68628 -18.0985
ltibia 33.5085
lfoot -26.8167 4.59917
ltoes -7.89188
326
root 12.2585 17.1198 11.0953 2.29415 -2.59029 -0.392986
lowerback 8.271 -2.12047 -6.55657
upperback 0.834396 -3.23633 5.21668
thorax -3.09656 -1.51745 9.60302
lowerneck -10.3192 -5.29498 -12.0234
upperneck 28.5524 -8.58081 11.9013
head 12.1192 -3.83374 5.40802
rclavicle 3.02153e-014 -1.35174e-014
rhumerus -44.1585 -33.6877 -56.0689
rradius 27.761
rwrist -17.6726
rhand -18.2828 14.1052
rfingers 7.12502
rthumb 7.99736 -15.7235
lclavicle 3.02153e-014 -1.35174e-014
lhumerus -23.7989 4.63606 78.5891
lradius 38.1588
lwrist -1.5783
lhand -4.92221 30.9139
lfingers 7.12502
lthumb 20.8681 59.8115
rfemur -24.3202 4.9177 9.046
rtibia 42.9586
rfoot -16.5675 -2.4866
rtoes 10.4624
lfemur -2.86351 -5.80351 -17.5217
ltibia 33.5389
lfoot -26.7642 5.0365
ltoes -8.93626
327
root 12.2191 17.1235 11.1471 2.29185 -2.6475 -0.634951
lowerback 8.36636 -2.16136 -6.33865
upperback 0.759571 -3.27176 5.30368
thorax -3.2285 -1.52823 9.58343
lowerneck -10.8692 -5.01058 -11.6411
upperneck 28.4612 -8.05148 11.4806
head 12.0766 -3.58252 5.24025
rclavicle 3.89618e-014 1.35174e-014
rhumerus -43.6341 -32.6465 -56.889
rradius 28.3468
rwrist -18.4962
rhand -18.2707 13.8954
rfingers 7.12502
rthumb 8.00908 -15.9328
lclavicle 3.89618e-014 1.35174e-014
lhumerus -23.6897 4.74759 78.378
lradius 38.2682
lwrist -1.53841
lhand -5.33832 30.4653
lfingers 7.12502
lthumb 20.4683 59.4064
rfemur -24.1271 4.78298 9.48119
rtibia 42.984
rfoot -16.7062 -2.31529
rtoes 10.0232
lfemur -2.66711 -5.9949 -17.2027
ltibia 33.6152
lfoot -26.6378 5.33526
ltoes -9.94587
328
root 12.1798 17.1271 11.1959 2.25492 -2.66367 -0.629846
lowerback 8.42828 -2.15909 -6.30752
upperback 0.730566 -3.26874 5.2869
thorax -3.29717 -1.52251 9.5518
lowerneck -11.0022 -4.85299 -11.5829
upperneck 28.0201 -7.74367 11.3888
head 11.8762 -3.44251 5.21862
rclavicle 3.8763e-014 -1.51076e-014
rhumerus -43.2074 -32.1928 -57.4518
rradius 28.7823
rwrist -18.8872
rhand -18.2391 14.0376
rfingers 7.12502
rthumb 8.03958 -15.7895
lclavicle 3.8763e-014 -1.51076e-014
lhumerus -23.3712 4.79164 78.153
lradius 38.4249
lwrist -1.60108
lhand -4.89054 30.9405
lfingers 7.12502
lthumb 20.8986 59.8347
rfemur -23.9334 4.53104 9.61631
rtibia 43.0012
rfoot -16.8986 -1.98009
rtoes 10.2382
lfemur -2.46491 -6.2578 -17.1792
ltibia 33.6862
lfoot -26.566 5.75486
ltoes -11.0939
329
root 12.1371 17.1256 11.24 2.25889 -2.78374 -0.649155
lowerback 8.44377 -2.13774 -6.30618
upperback 0.775783 -3.24204 5.25648
thorax -3.26561 -1.51247 9.51405
lowerneck -11.4072 -4.71623 -11.6592
upperneck 27.8102 -7.51043 11.5611
head 11.8538 -3.31265 5.32114
rclavicle -6.04305e-014 1.98785e-014
rhumerus -42.6619 -32.4663 -57.7384
rradius 28.8553
rwrist -18.4702
rhand -18.0831 14.4168
rfingers 7.12502
rthumb 8.19016 -15.4045
lclavicle -6.04305e-014 1.98785e-014
lhumerus -22.8278 4.9009 77.8774
lradius 38.428
lwrist -1.49796
lhand -4.42265 31.8475
lfingers 7.12502
lthumb 21.3481 60.6915
rfemur -23.827 4.46834 9.75843
rtibia 43.0234
rfoot -17.2841 -1.5924
rtoes 10.7007
lfemur -2.29207 -6.52769 -17.1295
ltibia 33.7251
lfoot -26.5276 6.15041
ltoes -11.6113
330
root 12.0945 17.1278 11.2876 2.23198 -2.89562 -0.714419
lowerback 8.46639 -2.14434 -6.29159
upperback 0.852118 -3.25097 5.25927
thorax -3.19651 -1.52351 9.50738
lowerneck -11.5909 -4.53598 -11.7211
upperneck 27.4186 -7.21865 11.7207
head 11.7037 -3.16284 5.41884
rclavicle 7.7526e-015 2.70347e-014
rhumerus -42.0085 -32.1973 -58.3432
rradius 29.1442
rwrist -18.4155
rhand -17.8577 14.6106
rfingers 7.12502
rthumb 8.40769 -15.202
lclavicle 7.7526e-015 2.70347e-014
lhumerus -22.5383 5.19585 77.6428
lradius 38.6292
lwrist -1.42294
lhand -4.62958 31.9322
lfingers 7.12502
lthumb 21.1493 60.7986
rfemur -23.6664 4.4539 9.97061
rtibia 43.0472
rfoot -17.5921 -1.32539
rtoes 10.4054
lfemur -2.05617 -6.75818 -17.0104
ltibia 33.7448
lfoot -26.355 6.3339
ltoes -11.5558
331
root 12.0544 17.1338 11.3419 2.13353 -2.92586 -0.798493
lowerback 8.43389 -2.17841 -6.15862
upperback 0.946058 -3.28403 5.23946
thorax -3.08124 -1.55099 9.40372
lowerneck -11.2349 -4.40559 -11.9401
upperneck 26.6057 -7.01712 12.0099
head 11.3067 -3.07171 5.56653
rclavicle 1.47101e-014 -7.55382e-014
rhumerus -41.4462 -31.5115 -59.0848
rradius 29.5434
rwrist -18.6027
rhand -17.5502 14.8094
rfingers 7.12502
rthumb 8.70438 -14.9911
lclavicle 1.47101e-014 -7.55382e-014
lhumerus -22.3551 5.47466 77.4391
lradius 38.8572
lwrist -1.44345
lhand -4.9628 31.7849
lfingers 7.12502
lthumb 20.8292 60.6869
rfemur -23.4005 4.19682 10.2127
rtibia 43.0746
rfoot -17.5595 -1.09829
rtoes 10.1861
lfemur -1.6961 -6.77463 -16.8184
ltibia 33.7574
lfoot -26.0546 6.28257
ltoes -11.63
